<svg xmlns="http://www.w3.org/2000/svg" fill="#fff" height="48" viewBox="0 96 960 960" width="48"><path d="M200 656v-80h80v80h-80Zm-80-80v-80h80v80h-80Zm360-280v-80h80v80h-80ZM170 406h140V266H170v140Zm-50 50V216h240v240H120Zm50 430h140V746H170v140Zm-50 50V696h240v240H120Zm530-530h140V266H650v140Zm-50 50V216h240v240H600ZM360 656v-80h-80v-80h160v160h-80Zm40-200V296h80v80h80v80H400Zm-190-90v-60h60v60h-60Zm0 480v-60h60v60h-60Zm480-480v-60h60v60h-60Zm-40 570V806H520v-60h130V616h60v130h130v60H710v130h-60Z"/></svg>